HIERARCHY
ROOT mixamorig:Hips
{
	OFFSET 0.000000 201.639420 0.000000
	CHANNELS 6 Xposition Yposition Zposition Xrotation Yrotation Zrotation
	JOINT mixamorig:Spine
	{
		OFFSET 0.006200 19.524994 -2.481800
		CHANNELS 3 Xrotation Yrotation Zrotation
		JOINT mixamorig:Spine1
		{
			OFFSET -0.000900 22.835007 -2.825400
			CHANNELS 3 Xrotation Yrotation Zrotation
			JOINT mixamorig:Spine2
			{
				OFFSET -0.020600 26.552490 -3.193300
				CHANNELS 3 Xrotation Yrotation Zrotation
				JOINT mixamorig:Neck
				{
					OFFSET -0.060000 30.701813 1.352200
					CHANNELS 3 Xrotation Yrotation Zrotation
					JOINT mixamorig:Head
					{
						OFFSET -0.087200 22.547607 3.670900
						CHANNELS 3 Xrotation Yrotation Zrotation
						JOINT mixamorig:HeadTop_End
						{
							OFFSET -0.830600 40.355194 7.893500
							CHANNELS 3 Xrotation Yrotation Zrotation
							End Site
							{
								OFFSET 0.000000 30.592346 0.000000
							}
						}
						JOINT mixamorig:RightEye
						{
							OFFSET -6.302100 18.118591 16.197100
							CHANNELS 3 Xrotation Yrotation Zrotation
							End Site
							{
								OFFSET 0.000000 30.592346 0.000000
							}
						}
						JOINT mixamorig:LeftEye
						{
							OFFSET 6.741500 18.382690 16.401899
							CHANNELS 3 Xrotation Yrotation Zrotation
							End Site
							{
								OFFSET 0.000000 30.592346 0.000000
							}
						}
					}
				}
				JOINT mixamorig:LeftShoulder
				{
					OFFSET 11.924900 18.230499 1.425400
					CHANNELS 3 Xrotation Yrotation Zrotation
					JOINT mixamorig:LeftArm
					{
						OFFSET 25.435989 -0.697632 -5.229300
						CHANNELS 3 Xrotation Yrotation Zrotation
						JOINT mixamorig:LeftForeArm
						{
							OFFSET 54.684776 0.000000 0.000000
							CHANNELS 3 Xrotation Yrotation Zrotation
							JOINT mixamorig:LeftHand
							{
								OFFSET 55.098175 0.000000 0.000000
								CHANNELS 3 Xrotation Yrotation Zrotation
								JOINT mixamorig:LeftHandMiddle1
								{
									OFFSET 23.369751 0.000000 0.000000
									CHANNELS 3 Xrotation Yrotation Zrotation
									JOINT mixamorig:LeftHandMiddle2
									{
										OFFSET 6.378677 0.000000 0.000000
										CHANNELS 3 Xrotation Yrotation Zrotation
										JOINT mixamorig:LeftHandMiddle3
										{
											OFFSET 6.148331 0.000000 0.000000
											CHANNELS 3 Xrotation Yrotation Zrotation
											JOINT mixamorig:LeftHandMiddle4
											{
												OFFSET 6.582504 0.000000 0.000000
												CHANNELS 3 Xrotation Yrotation Zrotation
												End Site
												{
													OFFSET -1.168900 6.395691 1.028606
												}
											}
										}
									}
								}
								JOINT mixamorig:LeftHandThumb1
								{
									OFFSET 7.235672 -3.848206 5.434273
									CHANNELS 3 Xrotation Yrotation Zrotation
									JOINT mixamorig:LeftHandThumb2
									{
										OFFSET 6.568451 -3.792297 3.792300
										CHANNELS 3 Xrotation Yrotation Zrotation
										JOINT mixamorig:LeftHandThumb3
										{
											OFFSET 6.063080 -3.500519 3.500518
											CHANNELS 3 Xrotation Yrotation Zrotation
											JOINT mixamorig:LeftHandThumb4
											{
												OFFSET 4.793182 -2.767334 2.767349
												CHANNELS 3 Xrotation Yrotation Zrotation
												End Site
												{
													OFFSET 0.101639 6.054260 1.275483
												}
											}
										}
									}
								}
								JOINT mixamorig:LeftHandIndex1
								{
									OFFSET 23.101074 -0.309540 4.992809
									CHANNELS 3 Xrotation Yrotation Zrotation
									JOINT mixamorig:LeftHandIndex2
									{
										OFFSET 6.226883 0.000000 0.000000
										CHANNELS 3 Xrotation Yrotation Zrotation
										JOINT mixamorig:LeftHandIndex3
										{
											OFFSET 6.094330 0.000000 0.000000
											CHANNELS 3 Xrotation Yrotation Zrotation
											JOINT mixamorig:LeftHandIndex4
											{
												OFFSET 5.482605 0.000000 0.000000
												CHANNELS 3 Xrotation Yrotation Zrotation
												End Site
												{
													OFFSET -1.427902 5.233032 0.797164
												}
											}
										}
									}
								}
								JOINT mixamorig:LeftHandRing1
								{
									OFFSET 22.299240 0.021149 -3.964172
									CHANNELS 3 Xrotation Yrotation Zrotation
									JOINT mixamorig:LeftHandRing2
									{
										OFFSET 6.321869 0.000000 0.000000
										CHANNELS 3 Xrotation Yrotation Zrotation
										JOINT mixamorig:LeftHandRing3
										{
											OFFSET 5.899796 0.000000 0.000000
											CHANNELS 3 Xrotation Yrotation Zrotation
											JOINT mixamorig:LeftHandRing4
											{
												OFFSET 6.517899 0.000000 0.000000
												CHANNELS 3 Xrotation Yrotation Zrotation
												End Site
												{
													OFFSET -1.637299 6.232208 0.980890
												}
											}
										}
									}
								}
								JOINT mixamorig:LeftHandPinky1
								{
									OFFSET 20.463791 -0.302338 -8.562233
									CHANNELS 3 Xrotation Yrotation Zrotation
									JOINT mixamorig:LeftHandPinky2
									{
										OFFSET 6.908646 0.000000 0.000000
										CHANNELS 3 Xrotation Yrotation Zrotation
										JOINT mixamorig:LeftHandPinky3
										{
											OFFSET 4.622849 0.000000 0.000000
											CHANNELS 3 Xrotation Yrotation Zrotation
											JOINT mixamorig:LeftHandPinky4
											{
												OFFSET 5.216080 0.000000 0.000000
												CHANNELS 3 Xrotation Yrotation Zrotation
												End Site
												{
													OFFSET -0.606308 5.116241 0.814926
												}
											}
										}
									}
								}
							}
						}
					}
				}
				JOINT mixamorig:RightShoulder
				{
					OFFSET -12.001300 18.284088 1.348900
					CHANNELS 3 Xrotation Yrotation Zrotation
					JOINT mixamorig:RightArm
					{
						OFFSET -25.308500 -0.751312 -5.164599
						CHANNELS 3 Xrotation Yrotation Zrotation
						JOINT mixamorig:RightForeArm
						{
							OFFSET -54.684429 0.000000 0.000000
							CHANNELS 3 Xrotation Yrotation Zrotation
							JOINT mixamorig:RightHand
							{
								OFFSET -55.150291 0.000000 0.000000
								CHANNELS 3 Xrotation Yrotation Zrotation
								JOINT mixamorig:RightHandMiddle1
								{
									OFFSET -23.317566 0.000000 0.000000
									CHANNELS 3 Xrotation Yrotation Zrotation
									JOINT mixamorig:RightHandMiddle2
									{
										OFFSET -6.378403 0.000000 0.000000
										CHANNELS 3 Xrotation Yrotation Zrotation
										JOINT mixamorig:RightHandMiddle3
										{
											OFFSET -6.148193 0.000000 0.000000
											CHANNELS 3 Xrotation Yrotation Zrotation
											JOINT mixamorig:RightHandMiddle4
											{
												OFFSET -6.583389 0.000000 0.000000
												CHANNELS 3 Xrotation Yrotation Zrotation
												End Site
												{
													OFFSET 1.171692 6.395905 1.029786
												}
											}
										}
									}
								}
								JOINT mixamorig:RightHandThumb1
								{
									OFFSET -7.190521 -3.860474 5.435846
									CHANNELS 3 Xrotation Yrotation Zrotation
									JOINT mixamorig:RightHandThumb2
									{
										OFFSET -6.567429 -3.791718 3.791708
										CHANNELS 3 Xrotation Yrotation Zrotation
										JOINT mixamorig:RightHandThumb3
										{
											OFFSET -6.062469 -3.500153 3.500166
											CHANNELS 3 Xrotation Yrotation Zrotation
											JOINT mixamorig:RightHandThumb4
											{
												OFFSET -4.792618 -2.767029 2.767022
												CHANNELS 3 Xrotation Yrotation Zrotation
												End Site
												{
													OFFSET -0.100327 6.053253 1.276754
												}
											}
										}
									}
								}
								JOINT mixamorig:RightHandIndex1
								{
									OFFSET -23.048981 -0.310791 4.992554
									CHANNELS 3 Xrotation Yrotation Zrotation
									JOINT mixamorig:RightHandIndex2
									{
										OFFSET -6.227539 0.000000 0.000000
										CHANNELS 3 Xrotation Yrotation Zrotation
										JOINT mixamorig:RightHandIndex3
										{
											OFFSET -6.095047 0.000000 0.000000
											CHANNELS 3 Xrotation Yrotation Zrotation
											JOINT mixamorig:RightHandIndex4
											{
												OFFSET -5.484772 0.000000 0.000000
												CHANNELS 3 Xrotation Yrotation Zrotation
												End Site
												{
													OFFSET 1.420593 5.237305 0.797056
												}
											}
										}
									}
								}
								JOINT mixamorig:RightHandRing1
								{
									OFFSET -22.246323 0.020569 -3.963762
									CHANNELS 3 Xrotation Yrotation Zrotation
									JOINT mixamorig:RightHandRing2
									{
										OFFSET -6.322128 0.000000 0.000000
										CHANNELS 3 Xrotation Yrotation Zrotation
										JOINT mixamorig:RightHandRing3
										{
											OFFSET -5.900024 0.000000 0.000000
											CHANNELS 3 Xrotation Yrotation Zrotation
											JOINT mixamorig:RightHandRing4
											{
												OFFSET -6.518356 0.000000 0.000000
												CHANNELS 3 Xrotation Yrotation Zrotation
												End Site
												{
													OFFSET 1.636398 6.232697 0.982186
												}
											}
										}
									}
								}
								JOINT mixamorig:RightHandPinky1
								{
									OFFSET -20.411011 -0.303314 -8.561701
									CHANNELS 3 Xrotation Yrotation Zrotation
									JOINT mixamorig:RightHandPinky2
									{
										OFFSET -6.907349 0.000000 0.000000
										CHANNELS 3 Xrotation Yrotation Zrotation
										JOINT mixamorig:RightHandPinky3
										{
											OFFSET -4.623840 0.000000 0.000000
											CHANNELS 3 Xrotation Yrotation Zrotation
											JOINT mixamorig:RightHandPinky4
											{
												OFFSET -5.218353 0.000000 0.000000
												CHANNELS 3 Xrotation Yrotation Zrotation
												End Site
												{
													OFFSET 0.602097 5.118835 0.816273
												}
											}
										}
									}
								}
							}
						}
					}
				}
			}
		}
	}
	JOINT mixamorig:LeftUpLeg
	{
		OFFSET 18.168400 -13.561905 -0.039000
		CHANNELS 3 Xrotation Yrotation Zrotation
		JOINT mixamorig:LeftLeg
		{
			OFFSET 0.577358 -80.825211 -3.695000
			CHANNELS 3 Xrotation Yrotation Zrotation
			JOINT mixamorig:LeftFoot
			{
				OFFSET -0.577356 -83.370262 -6.520700
				CHANNELS 3 Xrotation Yrotation Zrotation
				JOINT mixamorig:LeftToeBase
				{
					OFFSET 0.750401 -20.798306 25.135401
					CHANNELS 3 Xrotation Yrotation Zrotation
					JOINT mixamorig:LeftToe_End
					{
						OFFSET -0.000500 0.001200 19.917799
						CHANNELS 3 Xrotation Yrotation Zrotation
						End Site
						{
							OFFSET 0.000000 19.917805 0.000000
						}
					}
				}
			}
		}
	}
	JOINT mixamorig:RightUpLeg
	{
		OFFSET -18.162500 -13.585098 -0.041000
		CHANNELS 3 Xrotation Yrotation Zrotation
		JOINT mixamorig:RightLeg
		{
			OFFSET -0.595024 -80.945297 -3.631900
			CHANNELS 3 Xrotation Yrotation Zrotation
			JOINT mixamorig:RightFoot
			{
				OFFSET 0.595024 -83.218193 -6.561200
				CHANNELS 3 Xrotation Yrotation Zrotation
				JOINT mixamorig:RightToeBase
				{
					OFFSET -0.753601 -20.807106 25.115000
					CHANNELS 3 Xrotation Yrotation Zrotation
					JOINT mixamorig:RightToe_End
					{
						OFFSET 0.000299 0.001700 19.918200
						CHANNELS 3 Xrotation Yrotation Zrotation
						End Site
						{
							OFFSET 0.000000 19.918203 0.000000
						}
					}
				}
			}
		}
	}
}
MOTION
Frames: 4
Frame Time: 0.033333
0.409213 108.680405 -9.788574 -42.029272 -4.265750 4.052321 7.350696 -0.186468 -1.688538 14.693958 -0.516959 -3.333554 14.693964 -0.516961 -3.333554 9.913626 4.167816 -7.328179 -11.514565 -5.150035 7.485595 -0.000001 -0.000000 0.000000 -0.000001 -0.000000 0.000000 -0.000001 -0.000000 0.000000 1.601598 4.550845 -16.113724 -5.852668 -9.585493 -52.869592 62.653496 -137.261394 51.331935 14.167203 -35.143789 21.747782 1.304908 0.737022 -38.091169 -4.799486 -5.297637 -76.753807 -0.000001 0.000003 0.000001 0.000001 -0.000001 0.000000 -1.379437 25.639098 -13.119192 17.172202 -8.437566 13.899303 0.000004 0.000005 -0.000003 0.000002 -0.000000 -0.000001 -6.838519 -0.967384 -19.449208 -3.075825 -3.226613 -59.602888 -0.000007 0.000009 -0.000009 0.000002 -0.000000 0.000002 -4.279194 6.270709 -49.296334 -2.499856 -4.176013 -73.016505 -0.000000 -0.000013 -0.000003 -0.000000 -0.000003 -0.000001 -11.085872 1.672432 -65.591434 -1.086132 -6.078689 -62.950309 -0.000001 -0.000000 0.000001 0.000000 -0.000004 -0.000000 1.092628 16.371960 10.139649 -1.198977 30.719507 61.357427 -39.779776 61.193379 39.771898 27.875868 8.183352 -14.221672 -0.076194 -1.630952 24.529079 -1.648072 2.994165 47.587468 0.000016 -0.000004 -0.000004 -0.000001 0.000001 0.000001 38.456069 17.919997 -17.612601 -0.642343 -0.093888 -1.289337 0.000007 -0.000008 -0.000004 0.000002 -0.000005 -0.000001 -7.305390 -4.237353 19.570271 -1.453480 1.411081 46.920797 -0.000001 -0.000005 -0.000000 -0.000000 -0.000001 0.000000 -0.284512 -1.861532 21.528999 -1.195941 3.953137 40.244765 0.000008 -0.000001 -0.000003 -0.000004 0.000000 0.000000 1.330252 0.869779 21.924496 -1.079969 7.329710 32.084257 0.000001 -0.000000 -0.000001 0.000002 0.000001 -0.000000 -57.653101 15.415916 17.643403 89.627648 2.599884 -2.306615 9.174824 -3.673849 13.531552 -0.294074 -0.043646 1.090977 0.000000 -0.000000 0.000000 -58.909781 -2.677602 -18.315019 71.108177 8.399545 1.880336 3.018713 -0.990668 -10.547350 0.460832 -0.110544 0.263372 -0.000002 -0.000000 0.000000 
0.014559 108.046356 -9.661369 -40.205854 -4.012941 3.995286 7.376914 -0.465235 -1.499542 14.742251 -1.017971 -2.854193 14.742239 -1.017970 -2.854192 7.672599 4.423777 -8.738775 -8.941980 -2.349071 5.741729 0.000000 0.000000 -0.000000 0.000000 0.000000 -0.000000 0.000000 0.000000 -0.000000 0.125870 -0.536828 -10.746918 -5.951325 -2.523789 -56.847220 59.283556 -140.790170 50.202266 4.430283 -35.724037 9.061247 0.703105 2.152129 -38.007759 -4.493025 -5.170921 -75.295295 -0.000000 -0.000002 0.000000 -0.000002 0.000002 -0.000000 -1.644761 26.564423 -15.001028 17.173457 -8.436339 13.891906 0.000003 0.000007 -0.000002 -0.000001 0.000002 0.000001 -7.724850 0.570660 -20.046779 -2.702953 -2.313043 -64.104857 -0.000004 0.000011 -0.000006 -0.000002 0.000001 -0.000002 -4.709415 7.766805 -49.128625 -2.883141 -4.371759 -76.233456 0.000002 -0.000004 -0.000002 -0.000000 -0.000003 0.000002 -11.602220 3.364864 -65.170578 -3.085567 -7.186705 -76.974381 0.000001 0.000006 0.000001 -0.000002 -0.000002 -0.000001 0.351505 17.675971 15.014943 0.427261 22.157870 62.031662 -55.907335 70.562227 59.788020 33.948735 -0.948109 -17.575082 -0.173808 -1.430440 27.361297 -2.058243 3.331089 53.538588 0.000014 -0.000005 -0.000002 0.000004 0.000001 -0.000001 32.741594 15.629484 -17.291266 -0.642415 -0.093885 -1.289454 0.000006 -0.000009 -0.000004 -0.000002 0.000000 -0.000000 -7.358662 -4.095562 21.506657 -1.907216 1.795161 52.855907 -0.000001 0.000000 0.000000 -0.000000 0.000000 0.000001 -0.445631 -1.493426 25.738335 -1.547016 4.324823 46.200328 0.000003 -0.000001 -0.000003 -0.000002 0.000001 -0.000001 1.095100 1.385086 27.120431 -1.343615 7.701826 38.053494 0.000001 0.000005 -0.000001 -0.000003 -0.000000 0.000001 -60.159657 13.596854 16.563707 90.160655 1.778678 -2.462611 11.244277 -2.755862 12.198460 -2.087243 -0.037230 1.063694 -0.000000 0.000000 -0.000000 -60.657769 -0.968967 -17.702839 72.264405 5.240469 2.054432 5.486515 -0.346600 -9.415816 0.486302 -0.110874 0.226188 -0.000001 -0.000002 -0.000001 
0.301935 107.517471 -9.383179 -38.504464 -3.680092 4.012760 7.345223 -0.728006 -1.302462 14.678625 -1.469015 -2.338589 14.678616 -1.469016 -2.338588 5.130944 4.827613 -9.463436 -6.239444 0.724793 4.202760 0.000000 -0.000000 0.000000 0.000000 -0.000000 0.000000 0.000000 -0.000000 0.000000 -0.829732 -2.512458 -7.042132 -12.134210 -1.202653 -56.953102 52.062581 -141.315466 47.151142 -2.476942 -35.711555 5.994363 0.126474 3.491206 -37.894299 -4.206454 -5.043389 -73.900256 -0.000000 0.000009 0.000002 -0.000002 0.000003 0.000001 -1.840522 27.499643 -16.789174 17.174642 -8.435096 13.884653 0.000005 0.000002 -0.000003 -0.000001 -0.000001 -0.000000 -8.538582 2.045924 -20.562254 -2.249141 -1.536181 -68.252216 -0.000003 0.000008 -0.000008 -0.000001 -0.000002 0.000000 -5.127373 9.181799 -48.939296 -3.314166 -4.546478 -79.978927 0.000001 -0.000004 -0.000004 -0.000000 -0.000000 -0.000002 -12.116688 4.957982 -64.748581 -6.361096 -7.795572 -99.217418 0.000003 0.000001 0.000003 0.000002 0.000002 -0.000000 0.263331 17.888576 17.701120 -9.842528 22.299581 63.916391 -62.819183 75.065357 66.945881 37.987111 -4.582128 -13.752866 -0.275861 -1.244230 30.058471 -2.479572 3.610793 59.209701 0.000016 -0.000006 -0.000002 0.000003 0.000001 -0.000001 27.242034 13.718812 -17.217315 -0.642461 -0.093898 -1.289567 0.000014 -0.000007 -0.000008 -0.000002 0.000002 0.000001 -7.413779 -3.962276 23.350451 -2.374307 2.115454 58.511662 0.000000 -0.000001 0.000000 0.000001 -0.000000 0.000001 -0.623783 -1.154779 29.747195 -1.915677 4.643205 51.876393 0.000008 0.000001 -0.000002 0.000003 0.000002 -0.000001 0.828577 1.854118 32.071584 -1.629875 8.029110 43.744250 -0.000001 0.000003 0.000000 0.000001 -0.000001 0.000001 -62.466588 12.290971 15.157038 90.677298 1.049093 -2.575077 13.177929 -1.871643 11.294817 -3.948987 -0.028076 0.889895 -0.000000 0.000000 0.000000 -62.490835 0.102195 -18.347022 73.318488 4.092541 2.403437 7.952921 -0.355021 -8.825300 0.510286 -0.111190 0.190836 -0.000001 -0.000003 -0.000000 
1.463724 107.347168 -8.568626 -36.842396 -3.215557 4.022045 7.179978 -0.725007 -0.981717 14.354623 -1.363495 -1.600187 14.354607 -1.363497 -1.600186 2.179571 5.042759 -9.430521 -3.849589 2.808378 3.042105 -0.000000 -0.000000 -0.000000 -0.000000 -0.000000 -0.000000 -0.000000 -0.000000 -0.000000 -1.467034 -1.664063 -5.885293 -22.387963 -4.347398 -57.255539 47.202348 -140.146357 46.897879 -7.801518 -35.932625 2.613545 -0.457976 4.827438 -37.746269 -3.780407 -4.886217 -70.776544 0.000001 0.000003 -0.000001 -0.000001 0.000001 0.000001 -1.977910 28.492271 -18.585851 17.176022 -8.434017 13.876754 0.000003 0.000005 -0.000002 0.000000 0.000000 0.000001 -9.327953 3.536972 -21.027477 -1.699334 -0.938762 -70.534120 -0.000005 0.000015 -0.000006 0.000001 -0.000002 -0.000002 -5.557010 10.593325 -48.719087 -3.441252 -4.595275 -79.839256 0.000002 -0.000005 -0.000007 0.000000 0.000001 -0.000001 -12.657430 6.539754 -64.302741 -6.559224 -7.588087 -98.560668 0.000003 0.000002 -0.000000 0.000004 -0.000000 0.000002 0.918828 16.677493 16.955477 -25.825060 23.290354 69.323749 -48.942902 77.241557 54.850483 40.494320 -3.672790 -11.126234 -0.378806 -1.075394 32.564481 -2.935583 3.851726 64.995302 0.000016 -0.000009 0.000001 0.000000 0.000002 0.000002 21.674256 12.396458 -17.400105 -0.642530 -0.093907 -1.289673 0.000012 -0.000010 -0.000007 -0.000001 -0.000000 0.000002 -7.474926 -3.827182 25.245520 -2.875713 2.390410 64.224166 0.000002 -0.000003 0.000002 0.000001 -0.000001 0.000002 -0.818525 -0.839380 33.630994 -2.336716 4.937770 57.865820 0.000007 0.000002 -0.000002 0.000000 0.000002 0.000001 0.500031 2.327937 37.366954 -1.987587 8.359950 50.119423 0.000001 0.000002 -0.000004 -0.000002 -0.000000 0.000000 -64.541278 11.502244 13.411243 91.372256 0.396444 -2.653708 14.535797 -0.947121 11.114210 -5.641763 -0.010207 0.347822 0.000000 0.000000 0.000000 -64.354179 0.454552 -20.371599 74.384025 4.517593 2.835435 10.314118 -0.545954 -8.685561 0.534019 -0.111505 0.155553 -0.000000 -0.000002 -0.000000 
